<?xml version="1.0" encoding="utf-8"?>
<!-- Generator: Adobe Illustrator 23.0.1, SVG Export Plug-In . SVG Version: 6.00 Build 0)  -->
<svg version="1.1" id="Layer_1" xmlns="http://www.w3.org/2000/svg" xmlns:xlink="http://www.w3.org/1999/xlink" x="0px" y="0px"
	 viewBox="0 0 170 48" style="enable-background:new 0 0 170 48;" xml:space="preserve">
<style type="text/css">
	.st0{fill:#16254C;}
	.st1{fill:#6D6E71;}
</style>
<path class="st0" d="M5.7,25.7l2.5-3.1c1.8,1.5,3.6,2.4,5.8,2.4c1.8,0,2.8-0.7,2.8-1.9v-0.1c0-1.1-0.7-1.7-3.9-2.5
	c-3.9-1-6.5-2.1-6.5-6.1v-0.1c0-3.6,2.9-6,6.8-6c2.9,0,5.3,0.9,7.3,2.5l-2.2,3.3c-1.7-1.2-3.4-2-5.1-2c-1.6,0-2.5,0.8-2.5,1.7v0.1
	c0,1.3,0.8,1.7,4.2,2.6c4,1,6.2,2.5,6.2,6v0.1c0,3.9-3,6.2-7.2,6.2C11,28.9,8.1,27.8,5.7,25.7z"/>
<path class="st0" d="M26.3,8.7h14.8v3.9H30.6v4h9.2v3.9h-9.2v4.2h10.6v3.9H26.3V8.7z"/>
<path class="st0" d="M53.2,8.6h4l8.4,20H61l-1.8-4.5H51l-1.8,4.5h-4.4L53.2,8.6z M57.7,20.3l-2.6-6.4l-2.6,6.4H57.7z"/>
<path class="st0" d="M70,8.7h8c4.7,0,7.5,2.8,7.5,6.9v0.1c0,4.6-3.5,7-7.9,7h-3.3v6H70V8.7z M77.7,18.7c2.2,0,3.4-1.3,3.4-3v-0.1
	c0-2-1.3-3-3.5-3h-3.3v6.1H77.7z"/>
<path class="st0" d="M89.2,18.7L89.2,18.7c0-5.7,4.4-10.3,10.4-10.3S110,12.9,110,18.6v0.1c0,5.6-4.4,10.3-10.4,10.3
	S89.2,24.3,89.2,18.7z M105.5,18.7L105.5,18.7c0-3.5-2.5-6.3-5.9-6.3s-5.9,2.8-5.9,6.2v0.1c0,3.4,2.5,6.2,5.9,6.2
	C103.1,24.9,105.5,22.1,105.5,18.7z"/>
<path class="st0" d="M115.4,8.7h4.3v19.9h-4.3V8.7z"/>
<path class="st0" d="M126,8.7h4l9.2,12.2V8.7h4.2v19.9h-3.7l-9.5-12.6v12.6H126V8.7z"/>
<path class="st0" d="M154,12.7h-6v-4h16.2v4h-6v15.8H154V12.7z"/>
<g>
	<g>
		<path class="st1" d="M7.5,33.2h2.8c0.7,0,1.3,0.2,1.7,0.6c0.3,0.3,0.4,0.6,0.4,1.1v0c0,0.8-0.4,1.2-0.9,1.4
			c0.7,0.3,1.3,0.7,1.3,1.5v0c0,1.1-0.9,1.7-2.3,1.7H7.5V33.2z M10.1,35.9c0.7,0,1.2-0.3,1.2-0.9v0c0-0.5-0.4-0.8-1.1-0.8H8.6v1.7
			H10.1z M10.4,38.5c0.8,0,1.2-0.3,1.2-0.9v0c0-0.5-0.4-0.9-1.3-0.9H8.6v1.7H10.4z"/>
		<path class="st1" d="M17.6,36.8v-3.7h1.1v3.6c0,1.2,0.6,1.8,1.6,1.8c1,0,1.6-0.6,1.6-1.8v-3.7H23v3.6c0,1.9-1.1,2.8-2.7,2.8
			C18.6,39.6,17.6,38.7,17.6,36.8z"/>
		<path class="st1" d="M27.7,38.6l0.7-0.8c0.6,0.5,1.2,0.8,2,0.8c0.7,0,1.1-0.3,1.1-0.8v0c0-0.5-0.3-0.7-1.4-1
			C28.8,36.5,28,36.1,28,35v0c0-1.1,0.9-1.8,2.2-1.8c0.9,0,1.7,0.3,2.3,0.8l-0.6,0.8c-0.6-0.4-1.1-0.7-1.7-0.7c-0.7,0-1,0.3-1,0.8v0
			c0,0.5,0.3,0.7,1.5,1c1.3,0.3,2,0.8,2,1.9v0c0,1.2-0.9,1.9-2.3,1.9C29.4,39.6,28.5,39.3,27.7,38.6z"/>
		<path class="st1" d="M37.7,33.2h1.1v6.3h-1.1V33.2z"/>
		<path class="st1" d="M44.1,33.2h1l3.4,4.4v-4.4h1.1v6.3h-0.9L45.2,35v4.5h-1.1V33.2z"/>
		<path class="st1" d="M54.9,33.2h4.7v1H56v1.7h3.2v1H56v1.7h3.6v1h-4.8V33.2z"/>
		<path class="st1" d="M64.2,38.6l0.7-0.8c0.6,0.5,1.2,0.8,2,0.8c0.7,0,1.1-0.3,1.1-0.8v0c0-0.5-0.3-0.7-1.4-1
			c-1.4-0.3-2.1-0.7-2.1-1.9v0c0-1.1,0.9-1.8,2.2-1.8c0.9,0,1.7,0.3,2.3,0.8l-0.6,0.8c-0.6-0.4-1.1-0.7-1.7-0.7c-0.7,0-1,0.3-1,0.8
			v0c0,0.5,0.3,0.7,1.5,1c1.3,0.3,2,0.8,2,1.9v0c0,1.2-0.9,1.9-2.3,1.9C65.9,39.6,64.9,39.3,64.2,38.6z"/>
		<path class="st1" d="M73.5,38.6l0.7-0.8c0.6,0.5,1.2,0.8,2,0.8c0.7,0,1.1-0.3,1.1-0.8v0c0-0.5-0.3-0.7-1.4-1
			c-1.4-0.3-2.1-0.7-2.1-1.9v0c0-1.1,0.9-1.8,2.2-1.8c0.9,0,1.7,0.3,2.3,0.8l-0.6,0.8c-0.6-0.4-1.1-0.7-1.7-0.7c-0.7,0-1,0.3-1,0.8
			v0c0,0.5,0.3,0.7,1.5,1c1.3,0.3,2,0.8,2,1.9v0c0,1.2-0.9,1.9-2.3,1.9C75.2,39.6,74.3,39.3,73.5,38.6z"/>
		<path class="st1" d="M92,33.1h1l2.8,6.4h-1.2L94,38h-3l-0.7,1.5h-1.1L92,33.1z M93.6,37l-1.1-2.5L91.4,37H93.6z"/>
		<path class="st1" d="M100.5,33.2h2.4c2,0,3.4,1.4,3.4,3.2v0c0,1.8-1.4,3.2-3.4,3.2h-2.4V33.2z M102.9,38.5c1.3,0,2.2-0.9,2.2-2.1
			v0c0-1.2-0.9-2.2-2.2-2.2h-1.3v4.3H102.9z"/>
		<path class="st1" d="M110.3,33.2h1.2l1.9,4.9l1.9-4.9h1.2l-2.6,6.4h-1L110.3,33.2z"/>
		<path class="st1" d="M121.3,33.2h1.1v6.3h-1.1V33.2z"/>
		<path class="st1" d="M127.4,38.6l0.7-0.8c0.6,0.5,1.2,0.8,2,0.8c0.7,0,1.1-0.3,1.1-0.8v0c0-0.5-0.3-0.7-1.4-1
			c-1.4-0.3-2.1-0.7-2.1-1.9v0c0-1.1,0.9-1.8,2.2-1.8c0.9,0,1.7,0.3,2.3,0.8l-0.6,0.8c-0.6-0.4-1.1-0.7-1.7-0.7c-0.7,0-1,0.3-1,0.8
			v0c0,0.5,0.3,0.7,1.5,1c1.3,0.3,2,0.8,2,1.9v0c0,1.2-0.9,1.9-2.3,1.9C129,39.6,128.1,39.3,127.4,38.6z"/>
		<path class="st1" d="M136.9,36.4L136.9,36.4c0-1.8,1.4-3.3,3.3-3.3c1.9,0,3.3,1.5,3.3,3.3v0c0,1.8-1.4,3.3-3.3,3.3
			C138.3,39.6,136.9,38.2,136.9,36.4z M142.4,36.4L142.4,36.4c0-1.3-0.9-2.3-2.2-2.3c-1.3,0-2.1,1-2.1,2.2v0c0,1.2,0.9,2.3,2.2,2.3
			C141.5,38.6,142.4,37.6,142.4,36.4z"/>
		<path class="st1" d="M148.6,33.2h2.8c0.8,0,1.4,0.2,1.8,0.6c0.3,0.3,0.5,0.8,0.5,1.4v0c0,1-0.6,1.7-1.5,1.9l1.7,2.4h-1.3l-1.6-2.2
			h0h-1.4v2.2h-1.1V33.2z M151.3,36.3c0.8,0,1.3-0.4,1.3-1.1v0c0-0.7-0.5-1.1-1.3-1.1h-1.6v2.1H151.3z"/>
		<path class="st1" d="M158.3,38.6l0.7-0.8c0.6,0.5,1.2,0.8,2,0.8c0.7,0,1.1-0.3,1.1-0.8v0c0-0.5-0.3-0.7-1.4-1
			c-1.4-0.3-2.1-0.7-2.1-1.9v0c0-1.1,0.9-1.8,2.2-1.8c0.9,0,1.7,0.3,2.3,0.8l-0.6,0.8c-0.6-0.4-1.1-0.7-1.7-0.7c-0.7,0-1,0.3-1,0.8
			v0c0,0.5,0.3,0.7,1.5,1c1.3,0.3,2,0.8,2,1.9v0c0,1.2-0.9,1.9-2.3,1.9C160,39.6,159.1,39.3,158.3,38.6z"/>
	</g>
</g>
</svg>
